<?xml version="1.0" standalone="yes"?>

<svg version="1.1" viewBox="0.0 0.0 1390.023622047244 483.1469816272966" fill="none" stroke="none" stroke-linecap="square" stroke-miterlimit="10" xmlns="http://www.w3.org/2000/svg" xmlns:xlink="http://www.w3.org/1999/xlink"><clipPath id="p.0"><path d="m0 0l1390.0237 0l0 483.14697l-1390.0237 0l0 -483.14697z" clip-rule="nonzero"></path></clipPath><g clip-path="url(#p.0)"><path fill="#000000" fill-opacity="0.0" d="m0 0l1390.0237 0l0 483.14697l-1390.0237 0z" fill-rule="evenodd"></path><path fill="#000000" fill-opacity="0.0" d="m197.82414 23.291338l44.409454 0l0 54.960632l-44.409454 0z" fill-rule="evenodd"></path><path fill="#000000" d="m207.90227 50.211338l2.859375 -13.59375l1.8125 0l-2.84375 13.59375l-1.828125 0z" fill-rule="nonzero"></path><path fill="#000000" fill-opacity="0.0" d="m371.7874 182.14174l44.409424 0l0 54.960617l-44.409424 0z" fill-rule="evenodd"></path><path fill="#000000" d="m385.75616 209.06174l-2.609375 -13.59375l1.75 0l1.578125 8.09375q0.4375 2.21875 0.5625 3.5625q0.859375 -1.734375 1.40625 -2.75l4.84375 -8.90625l1.875 0l-7.453125 13.59375l-1.953125 0z" fill-rule="nonzero"></path><path fill="#000000" fill-opacity="0.0" d="m226.2336 419.38846l0 -407.52756" fill-rule="evenodd"></path><path stroke="#000000" stroke-width="2.0" stroke-linejoin="round" stroke-linecap="butt" d="m226.2336 407.38846l0 -383.52756" fill-rule="evenodd"></path><path fill="#000000" stroke="#000000" stroke-width="2.0" stroke-linecap="butt" d="m222.93013 407.38846l3.3034668 9.076202l3.3034668 -9.076202z" fill-rule="evenodd"></path><path fill="#000000" stroke="#000000" stroke-width="2.0" stroke-linecap="butt" d="m229.53706 23.860891l-3.3034668 -9.076195l-3.3034668 9.076195z" fill-rule="evenodd"></path><path fill="#000000" fill-opacity="0.0" d="m16.351706 215.62466l407.52756 0" fill-rule="evenodd"></path><path stroke="#000000" stroke-width="2.0" stroke-linejoin="round" stroke-linecap="butt" d="m28.351706 215.62466l383.52756 0" fill-rule="evenodd"></path><path fill="#000000" stroke="#000000" stroke-width="2.0" stroke-linecap="butt" d="m28.351706 212.32121l-9.076195 3.3034515l9.076195 3.3034668z" fill-rule="evenodd"></path><path fill="#000000" stroke="#000000" stroke-width="2.0" stroke-linecap="butt" d="m411.87927 218.92813l9.076202 -3.3034668l-9.076202 -3.3034515z" fill-rule="evenodd"></path><path fill="#000000" fill-opacity="0.0" d="m667.05774 23.291338l44.409424 0l0 54.960632l-44.409424 0z" fill-rule="evenodd"></path><path fill="#000000" d="m677.13586 50.211338l2.859375 -13.59375l1.8125 0l-2.84375 13.59375l-1.828125 0z" fill-rule="nonzero"></path><path fill="#000000" fill-opacity="0.0" d="m841.021 182.14174l44.409424 0l0 54.960617l-44.409424 0z" fill-rule="evenodd"></path><path fill="#000000" d="m854.98975 209.06174l-2.609375 -13.59375l1.75 0l1.578125 8.09375q0.4375 2.21875 0.5625 3.5625q0.859375 -1.734375 1.40625 -2.75l4.84375 -8.90625l1.875 0l-7.453125 13.59375l-1.953125 0z" fill-rule="nonzero"></path><path fill="#000000" fill-opacity="0.0" d="m695.46716 419.38846l0 -407.52756" fill-rule="evenodd"></path><path stroke="#000000" stroke-width="2.0" stroke-linejoin="round" stroke-linecap="butt" d="m695.46716 407.38846l0 -383.52756" fill-rule="evenodd"></path><path fill="#000000" stroke="#000000" stroke-width="2.0" stroke-linecap="butt" d="m692.1637 407.38846l3.3034668 9.076202l3.3034668 -9.076202z" fill-rule="evenodd"></path><path fill="#000000" stroke="#000000" stroke-width="2.0" stroke-linecap="butt" d="m698.7706 23.860891l-3.3034668 -9.076195l-3.3034668 9.076195z" fill-rule="evenodd"></path><path fill="#000000" fill-opacity="0.0" d="m485.5853 215.62466l407.52756 0" fill-rule="evenodd"></path><path stroke="#000000" stroke-width="2.0" stroke-linejoin="round" stroke-linecap="butt" d="m497.5853 215.62466l383.52756 0" fill-rule="evenodd"></path><path fill="#000000" stroke="#000000" stroke-width="2.0" stroke-linecap="butt" d="m497.5853 212.32121l-9.076202 3.3034515l9.076202 3.3034668z" fill-rule="evenodd"></path><path fill="#000000" stroke="#000000" stroke-width="2.0" stroke-linecap="butt" d="m881.11285 218.92813l9.076172 -3.3034668l-9.076172 -3.3034515z" fill-rule="evenodd"></path><path fill="#000000" fill-opacity="0.0" d="m1136.2914 23.291338l44.409424 0l0 54.960632l-44.409424 0z" fill-rule="evenodd"></path><path fill="#000000" d="m1146.3695 50.211338l2.859375 -13.59375l1.8125 0l-2.84375 13.59375l-1.828125 0z" fill-rule="nonzero"></path><path fill="#000000" fill-opacity="0.0" d="m1310.2546 182.14174l44.409424 0l0 54.960617l-44.409424 0z" fill-rule="evenodd"></path><path fill="#000000" d="m1324.2234 209.06174l-2.609375 -13.59375l1.75 0l1.578125 8.09375q0.4375 2.21875 0.5625 3.5625q0.859375 -1.734375 1.40625 -2.75l4.84375 -8.90625l1.875 0l-7.453125 13.59375l-1.953125 0z" fill-rule="nonzero"></path><path fill="#000000" fill-opacity="0.0" d="m1164.7008 419.38846l0 -407.52756" fill-rule="evenodd"></path><path stroke="#000000" stroke-width="2.0" stroke-linejoin="round" stroke-linecap="butt" d="m1164.7008 407.38846l0 -383.52756" fill-rule="evenodd"></path><path fill="#000000" stroke="#000000" stroke-width="2.0" stroke-linecap="butt" d="m1161.3973 407.38846l3.3034668 9.076202l3.3034668 -9.076202z" fill-rule="evenodd"></path><path fill="#000000" stroke="#000000" stroke-width="2.0" stroke-linecap="butt" d="m1168.0043 23.860891l-3.3034668 -9.076195l-3.3034668 9.076195z" fill-rule="evenodd"></path><path fill="#000000" fill-opacity="0.0" d="m954.8189 215.62466l407.52753 0" fill-rule="evenodd"></path><path stroke="#000000" stroke-width="2.0" stroke-linejoin="round" stroke-linecap="butt" d="m966.8189 215.62466l383.52753 0" fill-rule="evenodd"></path><path fill="#000000" stroke="#000000" stroke-width="2.0" stroke-linecap="butt" d="m966.8189 212.32121l-9.076233 3.3034515l9.076233 3.3034668z" fill-rule="evenodd"></path><path fill="#000000" stroke="#000000" stroke-width="2.0" stroke-linecap="butt" d="m1350.3464 218.92813l9.076172 -3.3034668l-9.076172 -3.3034515z" fill-rule="evenodd"></path><path fill="#000000" fill-opacity="0.0" d="m33.160107 300.3281l381.88977 -168.22049" fill-rule="evenodd"></path><path stroke="#0000ff" stroke-width="3.0" stroke-linejoin="round" stroke-linecap="butt" d="m33.160107 300.3281l381.88977 -168.22049" fill-rule="evenodd"></path><path fill="#000000" fill-opacity="0.0" d="m109.29396 389.9685l225.95274 -337.66928" fill-rule="evenodd"></path><path stroke="#ff0000" stroke-width="3.0" stroke-linejoin="round" stroke-linecap="butt" d="m109.29396 389.9685l225.95274 -337.66928" fill-rule="evenodd"></path><path fill="#000000" fill-opacity="0.0" d="m498.4042 377.68765c95.47244 0 143.20865 -75.82675 190.94485 -151.65353c47.736267 -75.82677 95.47247 -151.65353 190.94489 -151.65353" fill-rule="evenodd"></path><path stroke="#ff9900" stroke-width="3.0" stroke-linejoin="round" stroke-linecap="butt" d="m498.4042 377.68765c95.47244 0 143.20865 -75.82675 190.94485 -151.65353c47.736267 -75.82677 95.47247 -151.65353 190.94489 -151.65353" fill-rule="evenodd"></path><path fill="#000000" fill-opacity="0.0" d="m1015.5092 215.60104c29.26593 0 140.39496 1.2279205 175.59576 0c35.200806 -1.2279053 27.832031 -3.6837158 35.608887 -7.367447c7.7769775 -3.683731 8.187256 -8.799652 11.05249 -14.734909c2.8653564 -5.935257 4.0927734 -10.848206 6.13916 -20.876648c2.0463867 -10.028427 4.296997 -13.916885 6.13916 -39.29396c1.842041 -25.377075 4.0944824 -94.14041 4.91333 -112.9685" fill-rule="evenodd"></path><path stroke="#ff00ff" stroke-width="3.0" stroke-linejoin="round" stroke-linecap="butt" d="m1015.5092 215.60104c29.26593 0 140.39496 1.2279205 175.59576 0c35.200806 -1.2279053 27.832031 -3.6837158 35.608887 -7.367447c7.7769775 -3.683731 8.187256 -8.799652 11.05249 -14.734909c2.8653564 -5.935257 4.0927734 -10.848206 6.13916 -20.876648c2.0463867 -10.028427 4.296997 -13.916885 6.13916 -39.29396c1.842041 -25.377075 4.0944824 -94.14041 4.91333 -112.9685" fill-rule="evenodd"></path><path fill="#000000" fill-opacity="0.0" d="m50.97113 409.5643l346.2677 0l0 78.58267l-346.2677 0z" fill-rule="evenodd"></path><path fill="#000000" d="m103.93898 442.89563l0 -17.1875l7.609375 0q2.296875 0 3.484375 0.46875q1.203125 0.46875 1.921875 1.640625q0.71875 1.171875 0.71875 2.578125q0 1.828125 -1.1875 3.09375q-1.1875 1.25 -3.65625 1.59375q0.90625 0.421875 1.375 0.84375q1.0 0.921875 1.890625 2.296875l2.984375 4.671875l-2.859375 0l-2.28125 -3.578125q-0.984375 -1.546875 -1.640625 -2.359375q-0.640625 -0.828125 -1.15625 -1.15625q-0.5 -0.328125 -1.03125 -0.453125q-0.390625 -0.078125 -1.265625 -0.078125l-2.640625 0l0 7.625l-2.265625 0zm2.265625 -9.59375l4.890625 0q1.5625 0 2.4375 -0.328125q0.875 -0.328125 1.328125 -1.03125q0.46875 -0.703125 0.46875 -1.546875q0 -1.21875 -0.890625 -2.0q-0.875 -0.78125 -2.796875 -0.78125l-5.4375 0l0 5.6875zm23.285156 5.578125l2.171875 0.28125q-0.515625 1.90625 -1.90625 2.96875q-1.390625 1.046875 -3.5625 1.046875q-2.734375 0 -4.34375 -1.671875q-1.59375 -1.6875 -1.59375 -4.734375q0 -3.140625 1.609375 -4.875q1.625 -1.734375 4.203125 -1.734375q2.5 0 4.078125 1.703125q1.59375 1.703125 1.59375 4.78125q0 0.1875 -0.015625 0.5625l-9.28125 0q0.109375 2.046875 1.15625 3.140625q1.046875 1.09375 2.609375 1.09375q1.15625 0 1.96875 -0.609375q0.828125 -0.609375 1.3125 -1.953125zm-6.9375 -3.40625l6.953125 0q-0.140625 -1.5625 -0.796875 -2.359375q-1.0 -1.21875 -2.609375 -1.21875q-1.453125 0 -2.453125 0.984375q-0.984375 0.96875 -1.09375 2.59375zm10.910156 3.703125l2.09375 -0.328125q0.171875 1.25 0.96875 1.921875q0.8125 0.671875 2.25 0.671875q1.453125 0 2.15625 -0.59375q0.703125 -0.59375 0.703125 -1.390625q0 -0.71875 -0.625 -1.125q-0.421875 -0.28125 -2.15625 -0.71875q-2.3125 -0.578125 -3.21875 -1.0q-0.890625 -0.4375 -1.359375 -1.1875q-0.453125 -0.765625 -0.453125 -1.671875q0 -0.828125 0.375 -1.53125q0.390625 -0.71875 1.046875 -1.1875q0.484375 -0.359375 1.328125 -0.609375q0.859375 -0.265625 1.828125 -0.265625q1.46875 0 2.578125 0.421875q1.109375 0.421875 1.625 1.15625q0.53125 0.71875 0.734375 1.921875l-2.0625 0.28125q-0.140625 -0.96875 -0.8125 -1.5q-0.671875 -0.546875 -1.90625 -0.546875q-1.453125 0 -2.078125 0.484375q-0.625 0.484375 -0.625 1.125q0 0.40625 0.265625 0.734375q0.25 0.34375 0.8125 0.5625q0.3125 0.125 1.859375 0.546875q2.234375 0.59375 3.109375 0.984375q0.890625 0.375 1.390625 1.109375q0.515625 0.71875 0.515625 1.796875q0 1.046875 -0.625 1.984375q-0.609375 0.9375 -1.765625 1.453125q-1.15625 0.5 -2.625 0.5q-2.421875 0 -3.703125 -1.0q-1.265625 -1.015625 -1.625 -3.0zm12.859375 -11.03125l0 -2.4375l2.109375 0l0 2.4375l-2.109375 0zm0 14.75l0 -12.453125l2.109375 0l0 12.453125l-2.109375 0zm4.4726562 -3.71875l2.09375 -0.328125q0.171875 1.25 0.96875 1.921875q0.8125 0.671875 2.25 0.671875q1.453125 0 2.15625 -0.59375q0.703125 -0.59375 0.703125 -1.390625q0 -0.71875 -0.625 -1.125q-0.421875 -0.28125 -2.15625 -0.71875q-2.3125 -0.578125 -3.21875 -1.0q-0.890625 -0.4375 -1.359375 -1.1875q-0.453125 -0.765625 -0.453125 -1.671875q0 -0.828125 0.375 -1.53125q0.390625 -0.71875 1.046875 -1.1875q0.484375 -0.359375 1.328125 -0.609375q0.859375 -0.265625 1.828125 -0.265625q1.46875 0 2.578125 0.421875q1.109375 0.421875 1.625 1.15625q0.53125 0.71875 0.734375 1.921875l-2.0625 0.28125q-0.140625 -0.96875 -0.8125 -1.5q-0.671875 -0.546875 -1.90625 -0.546875q-1.453125 0 -2.078125 0.484375q-0.625 0.484375 -0.625 1.125q0 0.40625 0.265625 0.734375q0.25 0.34375 0.8125 0.5625q0.3125 0.125 1.859375 0.546875q2.234375 0.59375 3.109375 0.984375q0.890625 0.375 1.390625 1.109375q0.515625 0.71875 0.515625 1.796875q0 1.046875 -0.625 1.984375q-0.609375 0.9375 -1.765625 1.453125q-1.15625 0.5 -2.625 0.5q-2.421875 0 -3.703125 -1.0q-1.265625 -1.015625 -1.625 -3.0zm17.453125 1.828125l0.3125 1.859375q-0.890625 0.203125 -1.59375 0.203125q-1.15625 0 -1.796875 -0.359375q-0.625 -0.375 -0.890625 -0.96875q-0.25 -0.59375 -0.25 -2.484375l0 -7.171875l-1.546875 0l0 -1.640625l1.546875 0l0 -3.078125l2.09375 -1.265625l0 4.34375l2.125 0l0 1.640625l-2.125 0l0 7.28125q0 0.90625 0.109375 1.171875q0.125 0.25 0.375 0.40625q0.25 0.140625 0.71875 0.140625q0.34375 0 0.921875 -0.078125zm1.2773438 -4.328125q0 -3.46875 1.921875 -5.125q1.609375 -1.390625 3.921875 -1.390625q2.5625 0 4.1875 1.6875q1.625 1.6875 1.625 4.640625q0 2.40625 -0.71875 3.78125q-0.71875 1.375 -2.09375 2.140625q-1.375 0.765625 -3.0 0.765625q-2.625 0 -4.234375 -1.671875q-1.609375 -1.6875 -1.609375 -4.828125zm2.171875 0q0 2.390625 1.03125 3.578125q1.046875 1.1875 2.640625 1.1875q1.5625 0 2.609375 -1.1875q1.046875 -1.203125 1.046875 -3.65625q0 -2.3125 -1.0625 -3.5q-1.046875 -1.1875 -2.59375 -1.1875q-1.59375 0 -2.640625 1.1875q-1.03125 1.1875 -1.03125 3.578125zm11.941406 6.21875l0 -12.453125l1.890625 0l0 1.890625q0.734375 -1.328125 1.34375 -1.75q0.625 -0.421875 1.359375 -0.421875q1.0625 0 2.171875 0.6875l-0.734375 1.953125q-0.765625 -0.453125 -1.546875 -0.453125q-0.6875 0 -1.25 0.421875q-0.546875 0.40625 -0.78125 1.140625q-0.34375 1.125 -0.34375 2.46875l0 6.515625l-2.109375 0zm7.1640625 -3.71875l2.09375 -0.328125q0.171875 1.25 0.96875 1.921875q0.8125 0.671875 2.25 0.671875q1.453125 0 2.15625 -0.59375q0.703125 -0.59375 0.703125 -1.390625q0 -0.71875 -0.625 -1.125q-0.421875 -0.28125 -2.15625 -0.71875q-2.3125 -0.578125 -3.21875 -1.0q-0.890625 -0.4375 -1.359375 -1.1875q-0.453125 -0.765625 -0.453125 -1.671875q0 -0.828125 0.375 -1.53125q0.390625 -0.71875 1.046875 -1.1875q0.484375 -0.359375 1.328125 -0.609375q0.859375 -0.265625 1.828125 -0.265625q1.46875 0 2.578125 0.421875q1.109375 0.421875 1.625 1.15625q0.53125 0.71875 0.734375 1.921875l-2.0625 0.28125q-0.140625 -0.96875 -0.8125 -1.5q-0.671875 -0.546875 -1.90625 -0.546875q-1.453125 0 -2.078125 0.484375q-0.625 0.484375 -0.625 1.125q0 0.40625 0.265625 0.734375q0.25 0.34375 0.8125 0.5625q0.3125 0.125 1.859375 0.546875q2.234375 0.59375 3.109375 0.984375q0.890625 0.375 1.390625 1.109375q0.515625 0.71875 0.515625 1.796875q0 1.046875 -0.625 1.984375q-0.609375 0.9375 -1.765625 1.453125q-1.15625 0.5 -2.625 0.5q-2.421875 0 -3.703125 -1.0q-1.265625 -1.015625 -1.625 -3.0zm27.636719 2.1875q-1.171875 0.984375 -2.265625 1.40625q-1.078125 0.40625 -2.3125 0.40625q-2.046875 0 -3.15625 -1.0q-1.09375 -1.0 -1.09375 -2.5625q0 -0.921875 0.40625 -1.671875q0.421875 -0.75 1.09375 -1.203125q0.671875 -0.46875 1.515625 -0.703125q0.625 -0.15625 1.875 -0.3125q2.5625 -0.3125 3.765625 -0.734375q0.015625 -0.421875 0.015625 -0.546875q0 -1.28125 -0.609375 -1.8125q-0.796875 -0.71875 -2.390625 -0.71875q-1.5 0 -2.203125 0.53125q-0.703125 0.515625 -1.046875 1.84375l-2.0625 -0.28125q0.28125 -1.328125 0.921875 -2.140625q0.640625 -0.8125 1.859375 -1.25q1.21875 -0.453125 2.828125 -0.453125q1.59375 0 2.59375 0.375q1.0 0.375 1.46875 0.953125q0.46875 0.5625 0.65625 1.4375q0.09375 0.53125 0.09375 1.9375l0 2.8125q0 2.9375 0.140625 3.71875q0.140625 0.78125 0.53125 1.5l-2.203125 0q-0.328125 -0.65625 -0.421875 -1.53125zm-0.171875 -4.71875q-1.15625 0.46875 -3.453125 0.796875q-1.296875 0.1875 -1.84375 0.421875q-0.53125 0.234375 -0.828125 0.6875q-0.28125 0.453125 -0.28125 1.0q0 0.84375 0.625 1.40625q0.640625 0.5625 1.875 0.5625q1.21875 0 2.171875 -0.53125q0.953125 -0.53125 1.390625 -1.453125q0.34375 -0.71875 0.34375 -2.109375l0 -0.78125zm10.003906 4.359375l0.3125 1.859375q-0.890625 0.203125 -1.59375 0.203125q-1.15625 0 -1.796875 -0.359375q-0.625 -0.375 -0.890625 -0.96875q-0.25 -0.59375 -0.25 -2.484375l0 -7.171875l-1.546875 0l0 -1.640625l1.546875 0l0 -3.078125l2.09375 -1.265625l0 4.34375l2.125 0l0 1.640625l-2.125 0l0 7.28125q0 0.90625 0.109375 1.171875q0.125 0.25 0.375 0.40625q0.25 0.140625 0.71875 0.140625q0.34375 0 0.921875 -0.078125zm16.851562 0.359375q-1.171875 0.984375 -2.265625 1.40625q-1.078125 0.40625 -2.3125 0.40625q-2.046875 0 -3.15625 -1.0q-1.09375 -1.0 -1.09375 -2.5625q0 -0.921875 0.40625 -1.671875q0.421875 -0.75 1.09375 -1.203125q0.671875 -0.46875 1.515625 -0.703125q0.625 -0.15625 1.875 -0.3125q2.5625 -0.3125 3.765625 -0.734375q0.015625 -0.421875 0.015625 -0.546875q0 -1.28125 -0.609375 -1.8125q-0.796875 -0.71875 -2.390625 -0.71875q-1.5 0 -2.203125 0.53125q-0.703125 0.515625 -1.046875 1.84375l-2.0625 -0.28125q0.28125 -1.328125 0.921875 -2.140625q0.640625 -0.8125 1.859375 -1.25q1.21875 -0.453125 2.828125 -0.453125q1.59375 0 2.59375 0.375q1.0 0.375 1.46875 0.953125q0.46875 0.5625 0.65625 1.4375q0.09375 0.53125 0.09375 1.9375l0 2.8125q0 2.9375 0.140625 3.71875q0.140625 0.78125 0.53125 1.5l-2.203125 0q-0.328125 -0.65625 -0.421875 -1.53125zm-0.171875 -4.71875q-1.15625 0.46875 -3.453125 0.796875q-1.296875 0.1875 -1.84375 0.421875q-0.53125 0.234375 -0.828125 0.6875q-0.28125 0.453125 -0.28125 1.0q0 0.84375 0.625 1.40625q0.640625 0.5625 1.875 0.5625q1.21875 0 2.171875 -0.53125q0.953125 -0.53125 1.390625 -1.453125q0.34375 -0.71875 0.34375 -2.109375l0 -0.78125zm20.187485 1.6875l2.078125 0.265625q-0.34375 2.15625 -1.75 3.375q-1.390625 1.203125 -3.4375 1.203125q-2.546875 0 -4.109375 -1.671875q-1.546875 -1.671875 -1.546875 -4.78125q0 -2.015625 0.671875 -3.53125q0.671875 -1.515625 2.03125 -2.265625q1.359375 -0.765625 2.96875 -0.765625q2.03125 0 3.3125 1.03125q1.296875 1.03125 1.65625 2.90625l-2.046875 0.328125q-0.296875 -1.265625 -1.046875 -1.890625q-0.734375 -0.640625 -1.796875 -0.640625q-1.59375 0 -2.59375 1.15625q-0.984375 1.140625 -0.984375 3.609375q0 2.5 0.953125 3.640625q0.96875 1.140625 2.515625 1.140625q1.234375 0 2.0625 -0.765625q0.84375 -0.765625 1.0625 -2.34375zm3.09375 -1.65625q0 -3.46875 1.921875 -5.125q1.609375 -1.390625 3.921875 -1.390625q2.5625 0 4.1875 1.6875q1.625 1.6875 1.625 4.640625q0 2.40625 -0.71875 3.78125q-0.71875 1.375 -2.09375 2.140625q-1.375 0.765625 -3.0 0.765625q-2.625 0 -4.234375 -1.671875q-1.609375 -1.6875 -1.609375 -4.828125zm2.171875 0q0 2.390625 1.03125 3.578125q1.046875 1.1875 2.640625 1.1875q1.5625 0 2.609375 -1.1875q1.046875 -1.203125 1.046875 -3.65625q0 -2.3125 -1.0625 -3.5q-1.046875 -1.1875 -2.59375 -1.1875q-1.59375 0 -2.640625 1.1875q-1.03125 1.1875 -1.03125 3.578125zm11.957031 6.21875l0 -12.453125l1.90625 0l0 1.78125q1.375 -2.0625 3.953125 -2.0625q1.125 0 2.0625 0.40625q0.953125 0.40625 1.421875 1.0625q0.46875 0.65625 0.65625 1.5625q0.125 0.578125 0.125 2.046875l0 7.65625l-2.109375 0l0 -7.578125q0 -1.28125 -0.25 -1.921875q-0.25 -0.640625 -0.875 -1.015625q-0.625 -0.390625 -1.46875 -0.390625q-1.34375 0 -2.328125 0.859375q-0.984375 0.859375 -0.984375 3.25l0 6.796875l-2.109375 0zm12.503906 -3.71875l2.09375 -0.328125q0.171875 1.25 0.96875 1.921875q0.8125 0.671875 2.25 0.671875q1.453125 0 2.15625 -0.59375q0.703125 -0.59375 0.703125 -1.390625q0 -0.71875 -0.625 -1.125q-0.421875 -0.28125 -2.15625 -0.71875q-2.3125 -0.578125 -3.21875 -1.0q-0.890625 -0.4375 -1.359375 -1.1875q-0.453125 -0.765625 -0.453125 -1.671875q0 -0.828125 0.375 -1.53125q0.390625 -0.71875 1.046875 -1.1875q0.484375 -0.359375 1.328125 -0.609375q0.859375 -0.265625 1.828125 -0.265625q1.46875 0 2.578125 0.421875q1.109375 0.421875 1.625 1.15625q0.53125 0.71875 0.734375 1.921875l-2.0625 0.28125q-0.140625 -0.96875 -0.8125 -1.5q-0.671875 -0.546875 -1.90625 -0.546875q-1.453125 0 -2.078125 0.484375q-0.625 0.484375 -0.625 1.125q0 0.40625 0.265625 0.734375q0.25 0.34375 0.8125 0.5625q0.3125 0.125 1.859375 0.546875q2.234375 0.59375 3.109375 0.984375q0.890625 0.375 1.390625 1.109375q0.515625 0.71875 0.515625 1.796875q0 1.046875 -0.625 1.984375q-0.609375 0.9375 -1.765625 1.453125q-1.15625 0.5 -2.625 0.5q-2.421875 0 -3.703125 -1.0q-1.265625 -1.015625 -1.625 -3.0zm17.453125 1.828125l0.3125 1.859375q-0.890625 0.203125 -1.59375 0.203125q-1.15625 0 -1.796875 -0.359375q-0.625 -0.375 -0.890625 -0.96875q-0.25 -0.59375 -0.25 -2.484375l0 -7.171875l-1.546875 0l0 -1.640625l1.546875 0l0 -3.078125l2.09375 -1.265625l0 4.34375l2.125 0l0 1.640625l-2.125 0l0 7.28125q0 0.90625 0.109375 1.171875q0.125 0.25 0.375 0.40625q0.25 0.140625 0.71875 0.140625q0.34375 0 0.921875 -0.078125zm10.183594 0.359375q-1.171875 0.984375 -2.265625 1.40625q-1.078125 0.40625 -2.3125 0.40625q-2.046875 0 -3.15625 -1.0q-1.09375 -1.0 -1.09375 -2.5625q0 -0.921875 0.40625 -1.671875q0.421875 -0.75 1.09375 -1.203125q0.671875 -0.46875 1.515625 -0.703125q0.625 -0.15625 1.875 -0.3125q2.5625 -0.3125 3.765625 -0.734375q0.015625 -0.421875 0.015625 -0.546875q0 -1.28125 -0.609375 -1.8125q-0.796875 -0.71875 -2.390625 -0.71875q-1.5 0 -2.203125 0.53125q-0.703125 0.515625 -1.046875 1.84375l-2.0625 -0.28125q0.28125 -1.328125 0.921875 -2.140625q0.640625 -0.8125 1.859375 -1.25q1.21875 -0.453125 2.828125 -0.453125q1.59375 0 2.59375 0.375q1.0 0.375 1.46875 0.953125q0.46875 0.5625 0.65625 1.4375q0.09375 0.53125 0.09375 1.9375l0 2.8125q0 2.9375 0.140625 3.71875q0.140625 0.78125 0.53125 1.5l-2.203125 0q-0.328125 -0.65625 -0.421875 -1.53125zm-0.171875 -4.71875q-1.15625 0.46875 -3.453125 0.796875q-1.296875 0.1875 -1.84375 0.421875q-0.53125 0.234375 -0.828125 0.6875q-0.28125 0.453125 -0.28125 1.0q0 0.84375 0.625 1.40625q0.640625 0.5625 1.875 0.5625q1.21875 0 2.171875 -0.53125q0.953125 -0.53125 1.390625 -1.453125q0.34375 -0.71875 0.34375 -2.109375l0 -0.78125zm5.3945312 6.25l0 -12.453125l1.90625 0l0 1.78125q1.375 -2.0625 3.953125 -2.0625q1.125 0 2.0625 0.40625q0.953125 0.40625 1.421875 1.0625q0.46875 0.65625 0.65625 1.5625q0.125 0.578125 0.125 2.046875l0 7.65625l-2.109375 0l0 -7.578125q0 -1.28125 -0.25 -1.921875q-0.25 -0.640625 -0.875 -1.015625q-0.625 -0.390625 -1.46875 -0.390625q-1.34375 0 -2.328125 0.859375q-0.984375 0.859375 -0.984375 3.25l0 6.796875l-2.109375 0zm17.957031 -1.890625l0.3125 1.859375q-0.890625 0.203125 -1.59375 0.203125q-1.15625 0 -1.796875 -0.359375q-0.625 -0.375 -0.890625 -0.96875q-0.25 -0.59375 -0.25 -2.484375l0 -7.171875l-1.546875 0l0 -1.640625l1.546875 0l0 -3.078125l2.09375 -1.265625l0 4.34375l2.125 0l0 1.640625l-2.125 0l0 7.28125q0 0.90625 0.109375 1.171875q0.125 0.25 0.375 0.40625q0.25 0.140625 0.71875 0.140625q0.34375 0 0.921875 -0.078125z" fill-rule="nonzero"></path><path fill="#000000" d="m165.59328 470.005l0.3125 1.859375q-0.890625 0.203125 -1.59375 0.203125q-1.15625 0 -1.796875 -0.359375q-0.625 -0.375 -0.890625 -0.96875q-0.25 -0.59375 -0.25 -2.484375l0 -7.171875l-1.546875 0l0 -1.640625l1.546875 0l0 -3.078125l2.09375 -1.265625l0 4.34375l2.125 0l0 1.640625l-2.125 0l0 7.28125q0 0.90625 0.109375 1.171875q0.125 0.25 0.375 0.40625q0.25 0.140625 0.71875 0.140625q0.34375 0 0.921875 -0.078125zm10.589844 -2.125l2.171875 0.28125q-0.515625 1.90625 -1.90625 2.96875q-1.390625 1.046875 -3.5625 1.046875q-2.734375 0 -4.34375 -1.671875q-1.59375 -1.6875 -1.59375 -4.734375q0 -3.140625 1.609375 -4.875q1.625 -1.734375 4.203125 -1.734375q2.5 0 4.078125 1.703125q1.59375 1.703125 1.59375 4.78125q0 0.1875 -0.015625 0.5625l-9.28125 0q0.109375 2.046875 1.15625 3.140625q1.046875 1.09375 2.609375 1.09375q1.15625 0 1.96875 -0.609375q0.828125 -0.609375 1.3125 -1.953125zm-6.9375 -3.40625l6.953125 0q-0.140625 -1.5625 -0.796875 -2.359375q-1.0 -1.21875 -2.609375 -1.21875q-1.453125 0 -2.453125 0.984375q-0.984375 0.96875 -1.09375 2.59375zm11.753906 7.421875l0 -12.453125l1.890625 0l0 1.75q0.59375 -0.90625 1.5625 -1.46875q0.96875 -0.5625 2.21875 -0.5625q1.375 0 2.25 0.578125q0.890625 0.578125 1.265625 1.609375q1.46875 -2.1875 3.84375 -2.1875q1.84375 0 2.84375 1.03125q1.0 1.03125 1.0 3.15625l0 8.546875l-2.109375 0l0 -7.84375q0 -1.265625 -0.203125 -1.8125q-0.203125 -0.5625 -0.75 -0.90625q-0.53125 -0.34375 -1.25 -0.34375q-1.3125 0 -2.1875 0.875q-0.859375 0.875 -0.859375 2.796875l0 7.234375l-2.109375 0l0 -8.09375q0 -1.40625 -0.515625 -2.109375q-0.515625 -0.703125 -1.6875 -0.703125q-0.890625 0 -1.65625 0.46875q-0.75 0.46875 -1.09375 1.375q-0.34375 0.90625 -0.34375 2.609375l0 6.453125l-2.109375 0zm19.992188 4.765625l0 -17.21875l1.921875 0l0 1.625q0.6875 -0.953125 1.53125 -1.421875q0.859375 -0.484375 2.078125 -0.484375q1.59375 0 2.8125 0.828125q1.21875 0.8125 1.84375 2.3125q0.625 1.5 0.625 3.28125q0 1.90625 -0.6875 3.4375q-0.6875 1.53125 -2.0 2.34375q-1.296875 0.8125 -2.734375 0.8125q-1.0625 0 -1.90625 -0.4375q-0.828125 -0.453125 -1.375 -1.140625l0 6.0625l-2.109375 0zm1.921875 -10.921875q0 2.40625 0.96875 3.5625q0.96875 1.140625 2.359375 1.140625q1.40625 0 2.40625 -1.1875q1.0 -1.1875 1.0 -3.6875q0 -2.375 -0.984375 -3.5625q-0.96875 -1.1875 -2.328125 -1.1875q-1.359375 0 -2.390625 1.265625q-1.03125 1.25 -1.03125 3.65625zm19.957031 2.140625l2.171875 0.28125q-0.515625 1.90625 -1.90625 2.96875q-1.390625 1.046875 -3.5625 1.046875q-2.734375 0 -4.34375 -1.671875q-1.59375 -1.6875 -1.59375 -4.734375q0 -3.140625 1.609375 -4.875q1.625 -1.734375 4.203125 -1.734375q2.5 0 4.078125 1.703125q1.59375 1.703125 1.59375 4.78125q0 0.1875 -0.015625 0.5625l-9.28125 0q0.109375 2.046875 1.15625 3.140625q1.046875 1.09375 2.609375 1.09375q1.15625 0 1.96875 -0.609375q0.828125 -0.609375 1.3125 -1.953125zm-6.9375 -3.40625l6.953125 0q-0.140625 -1.5625 -0.796875 -2.359375q-1.0 -1.21875 -2.609375 -1.21875q-1.453125 0 -2.453125 0.984375q-0.984375 0.96875 -1.09375 2.59375zm11.738281 7.421875l0 -12.453125l1.890625 0l0 1.890625q0.734375 -1.328125 1.34375 -1.75q0.625 -0.421875 1.359375 -0.421875q1.0625 0 2.171875 0.6875l-0.734375 1.953125q-0.765625 -0.453125 -1.546875 -0.453125q-0.6875 0 -1.25 0.421875q-0.546875 0.40625 -0.78125 1.140625q-0.34375 1.125 -0.34375 2.46875l0 6.515625l-2.109375 0zm16.132812 -1.53125q-1.171875 0.984375 -2.265625 1.40625q-1.078125 0.40625 -2.3125 0.40625q-2.046875 0 -3.15625 -1.0q-1.09375 -1.0 -1.09375 -2.5625q0 -0.921875 0.40625 -1.671875q0.421875 -0.75 1.09375 -1.203125q0.671875 -0.46875 1.515625 -0.703125q0.625 -0.15625 1.875 -0.3125q2.5625 -0.3125 3.765625 -0.734375q0.015625 -0.421875 0.015625 -0.546875q0 -1.28125 -0.609375 -1.8125q-0.796875 -0.71875 -2.390625 -0.71875q-1.5 0 -2.203125 0.53125q-0.703125 0.515625 -1.046875 1.84375l-2.0625 -0.28125q0.28125 -1.328125 0.921875 -2.140625q0.640625 -0.8125 1.859375 -1.25q1.21875 -0.453125 2.828125 -0.453125q1.59375 0 2.59375 0.375q1.0 0.375 1.46875 0.953125q0.46875 0.5625 0.65625 1.4375q0.09375 0.53125 0.09375 1.9375l0 2.8125q0 2.9375 0.140625 3.71875q0.140625 0.78125 0.53125 1.5l-2.203125 0q-0.328125 -0.65625 -0.421875 -1.53125zm-0.171875 -4.71875q-1.15625 0.46875 -3.453125 0.796875q-1.296875 0.1875 -1.84375 0.421875q-0.53125 0.234375 -0.828125 0.6875q-0.28125 0.453125 -0.28125 1.0q0 0.84375 0.625 1.40625q0.640625 0.5625 1.875 0.5625q1.21875 0 2.171875 -0.53125q0.953125 -0.53125 1.390625 -1.453125q0.34375 -0.71875 0.34375 -2.109375l0 -0.78125zm10.003906 4.359375l0.3125 1.859375q-0.890625 0.203125 -1.59375 0.203125q-1.15625 0 -1.796875 -0.359375q-0.625 -0.375 -0.890625 -0.96875q-0.25 -0.59375 -0.25 -2.484375l0 -7.171875l-1.546875 0l0 -1.640625l1.546875 0l0 -3.078125l2.09375 -1.265625l0 4.34375l2.125 0l0 1.640625l-2.125 0l0 7.28125q0 0.90625 0.109375 1.171875q0.125 0.25 0.375 0.40625q0.25 0.140625 0.71875 0.140625q0.34375 0 0.921875 -0.078125zm10.2148285 1.890625l0 -1.828125q-1.453125 2.109375 -3.9375 2.109375q-1.109375 0 -2.0625 -0.421875q-0.953125 -0.421875 -1.421875 -1.0625q-0.45310974 -0.640625 -0.64060974 -1.5625q-0.140625 -0.625 -0.140625 -1.96875l0 -7.71875l2.1093597 0l0 6.90625q0 1.65625 0.140625 2.234375q0.1875 0.828125 0.828125 1.3125q0.65625 0.46875 1.609375 0.46875q0.9375 0 1.765625 -0.484375q0.84375 -0.5 1.1875 -1.328125q0.34375 -0.84375 0.34375 -2.4375l0 -6.671875l2.109375 0l0 12.453125l-1.890625 0zm5.1757812 0l0 -12.453125l1.890625 0l0 1.890625q0.734375 -1.328125 1.34375 -1.75q0.625 -0.421875 1.359375 -0.421875q1.0625 0 2.171875 0.6875l-0.734375 1.953125q-0.765625 -0.453125 -1.546875 -0.453125q-0.6875 0 -1.25 0.421875q-0.546875 0.40625 -0.78125 1.140625q-0.34375 1.125 -0.34375 2.46875l0 6.515625l-2.109375 0zm16.539062 -4.015625l2.171875 0.28125q-0.515625 1.90625 -1.90625 2.96875q-1.390625 1.046875 -3.5625 1.046875q-2.734375 0 -4.34375 -1.671875q-1.59375 -1.6875 -1.59375 -4.734375q0 -3.140625 1.609375 -4.875q1.625 -1.734375 4.203125 -1.734375q2.5 0 4.078125 1.703125q1.59375 1.703125 1.59375 4.78125q0 0.1875 -0.015625 0.5625l-9.28125 0q0.109375 2.046875 1.15625 3.140625q1.046875 1.09375 2.609375 1.09375q1.15625 0 1.96875 -0.609375q0.828125 -0.609375 1.3125 -1.953125zm-6.9375 -3.40625l6.953125 0q-0.140625 -1.5625 -0.796875 -2.359375q-1.0 -1.21875 -2.609375 -1.21875q-1.453125 0 -2.453125 0.984375q-0.984375 0.96875 -1.09375 2.59375z" fill-rule="nonzero"></path><path fill="#000000" fill-opacity="0.0" d="m521.8779 404.5643l346.26776 0l0 78.58267l-346.26776 0z" fill-rule="evenodd"></path><path fill="#000000" d="m624.94543 452.39563l0 -17.1875l11.59375 0l0 2.03125l-9.3125 0l0 5.328125l8.0625 0l0 2.015625l-8.0625 0l0 7.8125l-2.28125 0zm14.285156 -14.75l0 -2.4375l2.109375 0l0 2.4375l-2.109375 0zm0 14.75l0 -12.453125l2.109375 0l0 12.453125l-2.109375 0zm5.2695312 0l0 -17.1875l2.109375 0l0 17.1875l-2.109375 0zm13.503906 -1.53125q-1.171875 0.984375 -2.265625 1.40625q-1.078125 0.40625 -2.3125 0.40625q-2.046875 0 -3.15625 -1.0q-1.09375 -1.0 -1.09375 -2.5625q0 -0.921875 0.40625 -1.671875q0.421875 -0.75 1.09375 -1.203125q0.671875 -0.46875 1.515625 -0.703125q0.625 -0.15625 1.875 -0.3125q2.5625 -0.3125 3.765625 -0.734375q0.015625 -0.421875 0.015625 -0.546875q0 -1.28125 -0.609375 -1.8125q-0.796875 -0.71875 -2.390625 -0.71875q-1.5 0 -2.203125 0.53125q-0.703125 0.515625 -1.046875 1.84375l-2.0625 -0.28125q0.28125 -1.328125 0.921875 -2.140625q0.640625 -0.8125 1.859375 -1.25q1.21875 -0.453125 2.828125 -0.453125q1.59375 0 2.59375 0.375q1.0 0.375 1.46875 0.953125q0.46875 0.5625 0.65625 1.4375q0.09375 0.53125 0.09375 1.9375l0 2.8125q0 2.9375 0.140625 3.71875q0.140625 0.78125 0.53125 1.5l-2.203125 0q-0.328125 -0.65625 -0.421875 -1.53125zm-0.171875 -4.71875q-1.15625 0.46875 -3.453125 0.796875q-1.296875 0.1875 -1.84375 0.421875q-0.53125 0.234375 -0.828125 0.6875q-0.28125 0.453125 -0.28125 1.0q0 0.84375 0.625 1.40625q0.640625 0.5625 1.875 0.5625q1.21875 0 2.171875 -0.53125q0.953125 -0.53125 1.390625 -1.453125q0.34375 -0.71875 0.34375 -2.109375l0 -0.78125zm5.3945312 6.25l0 -12.453125l1.890625 0l0 1.75q0.59375 -0.90625 1.5625 -1.46875q0.96875 -0.5625 2.21875 -0.5625q1.375 0 2.25 0.578125q0.890625 0.578125 1.265625 1.609375q1.46875 -2.1875 3.84375 -2.1875q1.84375 0 2.84375 1.03125q1.0 1.03125 1.0 3.15625l0 8.546875l-2.109375 0l0 -7.84375q0 -1.265625 -0.203125 -1.8125q-0.203125 -0.5625 -0.75 -0.90625q-0.53125 -0.34375 -1.25 -0.34375q-1.3125 0 -2.1875 0.875q-0.859375 0.875 -0.859375 2.796875l0 7.234375l-2.109375 0l0 -8.09375q0 -1.40625 -0.515625 -2.109375q-0.515625 -0.703125 -1.6875 -0.703125q-0.890625 0 -1.65625 0.46875q-0.75 0.46875 -1.09375 1.375q-0.34375 0.90625 -0.34375 2.609375l0 6.453125l-2.109375 0zm28.523438 -4.015625l2.171875 0.28125q-0.515625 1.90625 -1.90625 2.96875q-1.390625 1.046875 -3.5625 1.046875q-2.734375 0 -4.34375 -1.671875q-1.59375 -1.6875 -1.59375 -4.734375q0 -3.140625 1.609375 -4.875q1.625 -1.734375 4.203125 -1.734375q2.5 0 4.078125 1.703125q1.59375 1.703125 1.59375 4.78125q0 0.1875 -0.015625 0.5625l-9.28125 0q0.109375 2.046875 1.15625 3.140625q1.046875 1.09375 2.609375 1.09375q1.15625 0 1.96875 -0.609375q0.828125 -0.609375 1.3125 -1.953125zm-6.9375 -3.40625l6.953125 0q-0.140625 -1.5625 -0.796875 -2.359375q-1.0 -1.21875 -2.609375 -1.21875q-1.453125 0 -2.453125 0.984375q-0.984375 0.96875 -1.09375 2.59375zm11.753906 7.421875l0 -12.453125l1.90625 0l0 1.78125q1.375 -2.0625 3.953125 -2.0625q1.125 0 2.0625 0.40625q0.953125 0.40625 1.421875 1.0625q0.46875 0.65625 0.65625 1.5625q0.125 0.578125 0.125 2.046875l0 7.65625l-2.109375 0l0 -7.578125q0 -1.28125 -0.25 -1.921875q-0.25 -0.640625 -0.875 -1.015625q-0.625 -0.390625 -1.46875 -0.390625q-1.34375 0 -2.328125 0.859375q-0.984375 0.859375 -0.984375 3.25l0 6.796875l-2.109375 0zm17.957031 -1.890625l0.3125 1.859375q-0.890625 0.203125 -1.59375 0.203125q-1.15625 0 -1.796875 -0.359375q-0.625 -0.375 -0.890625 -0.96875q-0.25 -0.59375 -0.25 -2.484375l0 -7.171875l-1.546875 0l0 -1.640625l1.546875 0l0 -3.078125l2.09375 -1.265625l0 4.34375l2.125 0l0 1.640625l-2.125 0l0 7.28125q0 0.90625 0.109375 1.171875q0.125 0.25 0.375 0.40625q0.25 0.140625 0.71875 0.140625q0.34375 0 0.921875 -0.078125zm10.6796875 1.890625l-1.953125 0l0 -17.1875l2.109375 0l0 6.140625q1.328125 -1.6875 3.40625 -1.6875q1.140625 0 2.171875 0.46875q1.03125 0.46875 1.6875 1.3125q0.65625 0.828125 1.03125 2.015625q0.375 1.171875 0.375 2.53125q0 3.1875 -1.578125 4.9375q-1.578125 1.75 -3.796875 1.75q-2.203125 0 -3.453125 -1.84375l0 1.5625zm-0.03125 -6.3125q0 2.234375 0.609375 3.234375q1.0 1.625 2.703125 1.625q1.375 0 2.375 -1.203125q1.015625 -1.203125 1.015625 -3.578125q0 -2.4375 -0.96875 -3.59375q-0.953125 -1.171875 -2.328125 -1.171875q-1.390625 0 -2.40625 1.203125q-1.0 1.203125 -1.0 3.484375zm19.582031 6.3125l0 -1.828125q-1.453125 2.109375 -3.9375 2.109375q-1.109375 0 -2.0625 -0.421875q-0.953125 -0.421875 -1.421875 -1.0625q-0.453125 -0.640625 -0.640625 -1.5625q-0.140625 -0.625 -0.140625 -1.96875l0 -7.71875l2.109375 0l0 6.90625q0 1.65625 0.140625 2.234375q0.1875 0.828125 0.828125 1.3125q0.65625 0.46875 1.609375 0.46875q0.9375 0 1.765625 -0.484375q0.84375 -0.5 1.1875 -1.328125q0.34375 -0.84375 0.34375 -2.4375l0 -6.671875l2.109375 0l0 12.453125l-1.890625 0zm5.1445312 0l0 -17.1875l2.109375 0l0 17.1875l-2.109375 0zm7.3320312 0l-1.953125 0l0 -17.1875l2.109375 0l0 6.140625q1.328125 -1.6875 3.40625 -1.6875q1.140625 0 2.171875 0.46875q1.03125 0.46875 1.6875 1.3125q0.65625 0.828125 1.03125 2.015625q0.375 1.171875 0.375 2.53125q0 3.1875 -1.578125 4.9375q-1.578125 1.75 -3.796875 1.75q-2.203125 0 -3.453125 -1.84375l0 1.5625zm-0.03125 -6.3125q0 2.234375 0.609375 3.234375q1.0 1.625 2.703125 1.625q1.375 0 2.375 -1.203125q1.015625 -1.203125 1.015625 -3.578125q0 -2.4375 -0.96875 -3.59375q-0.953125 -1.171875 -2.328125 -1.171875q-1.390625 0 -2.40625 1.203125q-1.0 1.203125 -1.0 3.484375z" fill-rule="nonzero"></path><path fill="#000000" fill-opacity="0.0" d="m992.7861 409.5643l346.26776 0l0 78.58267l-346.26776 0z" fill-rule="evenodd"></path><path fill="#000000" d="m1054.2637 451.88l2.140625 -0.1875q0.15625 1.28125 0.703125 2.109375q0.5625 0.828125 1.734375 1.34375q1.171875 0.5 2.640625 0.5q1.296875 0 2.296875 -0.375q1.0 -0.390625 1.484375 -1.0625q0.484375 -0.6875 0.484375 -1.484375q0 -0.796875 -0.46875 -1.40625q-0.46875 -0.609375 -1.546875 -1.015625q-0.6875 -0.265625 -3.0625 -0.828125q-2.359375 -0.578125 -3.3125 -1.078125q-1.234375 -0.640625 -1.84375 -1.59375q-0.59375 -0.96875 -0.59375 -2.140625q0 -1.3125 0.734375 -2.4375q0.75 -1.125 2.15625 -1.703125q1.421875 -0.59375 3.15625 -0.59375q1.90625 0 3.359375 0.609375q1.46875 0.609375 2.25 1.8125q0.796875 1.1875 0.84375 2.703125l-2.171875 0.171875q-0.171875 -1.640625 -1.1875 -2.46875q-1.015625 -0.828125 -3.0 -0.828125q-2.0625 0 -3.015625 0.765625q-0.9375 0.75 -0.9375 1.8125q0 0.921875 0.671875 1.515625q0.65625 0.609375 3.421875 1.234375q2.78125 0.625 3.8125 1.09375q1.5 0.6875 2.203125 1.75q0.71875 1.0625 0.71875 2.4375q0 1.375 -0.78125 2.59375q-0.78125 1.203125 -2.25 1.890625q-1.46875 0.671875 -3.3125 0.671875q-2.328125 0 -3.90625 -0.671875q-1.578125 -0.6875 -2.484375 -2.046875q-0.890625 -1.375 -0.9375 -3.09375zm25.039062 1.5l2.171875 0.28125q-0.515625 1.90625 -1.90625 2.96875q-1.390625 1.046875 -3.5625 1.046875q-2.734375 0 -4.34375 -1.671875q-1.59375 -1.6875 -1.59375 -4.734375q0 -3.140625 1.609375 -4.875q1.625 -1.734375 4.203125 -1.734375q2.5 0 4.078125 1.703125q1.59375 1.703125 1.59375 4.78125q0 0.1875 -0.015625 0.5625l-9.28125 0q0.109375 2.046875 1.15625 3.140625q1.046875 1.09375 2.609375 1.09375q1.15625 0 1.96875 -0.609375q0.828125 -0.609375 1.3125 -1.953125zm-6.9375 -3.40625l6.953125 0q-0.140625 -1.5625 -0.796875 -2.359375q-1.0 -1.21875 -2.609375 -1.21875q-1.453125 0 -2.453125 0.984375q-0.984375 0.96875 -1.09375 2.59375zm11.753906 7.421875l0 -12.453125l1.890625 0l0 1.75q0.59375 -0.90625 1.5625 -1.46875q0.96875 -0.5625 2.21875 -0.5625q1.375 0 2.25 0.578125q0.890625 0.578125 1.265625 1.609375q1.46875 -2.1875 3.84375 -2.1875q1.84375 0 2.84375 1.03125q1.0 1.03125 1.0 3.15625l0 8.546875l-2.109375 0l0 -7.84375q0 -1.265625 -0.203125 -1.8125q-0.203125 -0.5625 -0.75 -0.90625q-0.53125 -0.34375 -1.25 -0.34375q-1.3125 0 -2.1875 0.875q-0.859375 0.875 -0.859375 2.796875l0 7.234375l-2.109375 0l0 -8.09375q0 -1.40625 -0.515625 -2.109375q-0.515625 -0.703125 -1.6875 -0.703125q-0.890625 0 -1.65625 0.46875q-0.75 0.46875 -1.09375 1.375q-0.34375 0.90625 -0.34375 2.609375l0 6.453125l-2.109375 0zm20.007812 -14.75l0 -2.4375l2.109375 0l0 2.4375l-2.109375 0zm0 14.75l0 -12.453125l2.109375 0l0 12.453125l-2.109375 0zm13.441406 -4.5625l2.078125 0.265625q-0.34375 2.15625 -1.75 3.375q-1.390625 1.203125 -3.4375 1.203125q-2.546875 0 -4.109375 -1.671875q-1.546875 -1.671875 -1.546875 -4.78125q0 -2.015625 0.671875 -3.53125q0.671875 -1.515625 2.03125 -2.265625q1.359375 -0.765625 2.96875 -0.765625q2.03125 0 3.3125 1.03125q1.296875 1.03125 1.65625 2.90625l-2.046875 0.328125q-0.296875 -1.265625 -1.046875 -1.890625q-0.734375 -0.640625 -1.796875 -0.640625q-1.59375 0 -2.59375 1.15625q-0.984375 1.140625 -0.984375 3.609375q0 2.5 0.953125 3.640625q0.96875 1.140625 2.515625 1.140625q1.234375 0 2.0625 -0.765625q0.84375 -0.765625 1.0625 -2.34375zm3.09375 -1.65625q0 -3.46875 1.921875 -5.125q1.609375 -1.390625 3.921875 -1.390625q2.5625 0 4.1875 1.6875q1.625 1.6875 1.625 4.640625q0 2.40625 -0.71875 3.78125q-0.71875 1.375 -2.09375 2.140625q-1.375 0.765625 -3.0 0.765625q-2.625 0 -4.234375 -1.671875q-1.609375 -1.6875 -1.609375 -4.828125zm2.171875 0q0 2.390625 1.03125 3.578125q1.046875 1.1875 2.640625 1.1875q1.5625 0 2.609375 -1.1875q1.046875 -1.203125 1.046875 -3.65625q0 -2.3125 -1.0625 -3.5q-1.046875 -1.1875 -2.59375 -1.1875q-1.59375 0 -2.640625 1.1875q-1.03125 1.1875 -1.03125 3.578125zm11.957031 6.21875l0 -12.453125l1.90625 0l0 1.78125q1.375 -2.0625 3.953125 -2.0625q1.125 0 2.0625 0.40625q0.953125 0.40625 1.421875 1.0625q0.46875 0.65625 0.65625 1.5625q0.125 0.578125 0.125 2.046875l0 7.65625l-2.109375 0l0 -7.578125q0 -1.28125 -0.25 -1.921875q-0.25 -0.640625 -0.875 -1.015625q-0.625 -0.390625 -1.46875 -0.390625q-1.34375 0 -2.328125 0.859375q-0.984375 0.859375 -0.984375 3.25l0 6.796875l-2.109375 0zm21.425781 0l0 -1.578125q-1.1875 1.859375 -3.484375 1.859375q-1.484375 0 -2.734375 -0.8125q-1.25 -0.828125 -1.9375 -2.296875q-0.671875 -1.46875 -0.671875 -3.390625q0 -1.859375 0.609375 -3.375q0.625 -1.515625 1.859375 -2.328125q1.25 -0.8125 2.78125 -0.8125q1.125 0 2.0 0.484375q0.890625 0.46875 1.4375 1.234375l0 -6.171875l2.09375 0l0 17.1875l-1.953125 0zm-6.671875 -6.21875q0 2.390625 1.0 3.578125q1.015625 1.1875 2.390625 1.1875q1.390625 0 2.34375 -1.125q0.96875 -1.140625 0.96875 -3.453125q0 -2.5625 -0.984375 -3.75q-0.984375 -1.203125 -2.421875 -1.203125q-1.40625 0 -2.359375 1.15625q-0.9375 1.140625 -0.9375 3.609375zm20.097656 6.21875l0 -1.828125q-1.453125 2.109375 -3.9375 2.109375q-1.109375 0 -2.0625 -0.421875q-0.953125 -0.421875 -1.421875 -1.0625q-0.453125 -0.640625 -0.640625 -1.5625q-0.140625 -0.625 -0.140625 -1.96875l0 -7.71875l2.109375 0l0 6.90625q0 1.65625 0.140625 2.234375q0.1875 0.828125 0.828125 1.3125q0.65625 0.46875 1.609375 0.46875q0.9375 0 1.765625 -0.484375q0.84375 -0.5 1.1875 -1.328125q0.34375 -0.84375 0.34375 -2.4375l0 -6.671875l2.109375 0l0 12.453125l-1.890625 0zm13.316406 -4.5625l2.078125 0.265625q-0.34375 2.15625 -1.75 3.375q-1.390625 1.203125 -3.4375 1.203125q-2.546875 0 -4.109375 -1.671875q-1.546875 -1.671875 -1.546875 -4.78125q0 -2.015625 0.671875 -3.53125q0.671875 -1.515625 2.03125 -2.265625q1.359375 -0.765625 2.96875 -0.765625q2.03125 0 3.3125 1.03125q1.296875 1.03125 1.65625 2.90625l-2.046875 0.328125q-0.296875 -1.265625 -1.046875 -1.890625q-0.734375 -0.640625 -1.796875 -0.640625q-1.59375 0 -2.59375 1.15625q-0.984375 1.140625 -0.984375 3.609375q0 2.5 0.953125 3.640625q0.96875 1.140625 2.515625 1.140625q1.234375 0 2.0625 -0.765625q0.84375 -0.765625 1.0625 -2.34375zm8.484375 2.671875l0.3125 1.859375q-0.890625 0.203125 -1.59375 0.203125q-1.15625 0 -1.796875 -0.359375q-0.625 -0.375 -0.890625 -0.96875q-0.25 -0.59375 -0.25 -2.484375l0 -7.171875l-1.546875 0l0 -1.640625l1.546875 0l0 -3.078125l2.09375 -1.265625l0 4.34375l2.125 0l0 1.640625l-2.125 0l0 7.28125q0 0.90625 0.109375 1.171875q0.125 0.25 0.375 0.40625q0.25 0.140625 0.71875 0.140625q0.34375 0 0.921875 -0.078125zm1.2773438 -4.328125q0 -3.46875 1.921875 -5.125q1.609375 -1.390625 3.921875 -1.390625q2.5625 0 4.1875 1.6875q1.625 1.6875 1.625 4.640625q0 2.40625 -0.71875 3.78125q-0.71875 1.375 -2.09375 2.140625q-1.375 0.765625 -3.0 0.765625q-2.625 0 -4.234375 -1.671875q-1.609375 -1.6875 -1.609375 -4.828125zm2.171875 0q0 2.390625 1.03125 3.578125q1.046875 1.1875 2.640625 1.1875q1.5625 0 2.609375 -1.1875q1.046875 -1.203125 1.046875 -3.65625q0 -2.3125 -1.0625 -3.5q-1.046875 -1.1875 -2.59375 -1.1875q-1.59375 0 -2.640625 1.1875q-1.03125 1.1875 -1.03125 3.578125zm11.941406 6.21875l0 -12.453125l1.890625 0l0 1.890625q0.734375 -1.328125 1.34375 -1.75q0.625 -0.421875 1.359375 -0.421875q1.0625 0 2.171875 0.6875l-0.734375 1.953125q-0.765625 -0.453125 -1.546875 -0.453125q-0.6875 0 -1.25 0.421875q-0.546875 0.40625 -0.78125 1.140625q-0.34375 1.125 -0.34375 2.46875l0 6.515625l-2.109375 0zm22.753906 0l0 -1.578125q-1.1875 1.859375 -3.484375 1.859375q-1.484375 0 -2.734375 -0.8125q-1.25 -0.828125 -1.9375 -2.296875q-0.671875 -1.46875 -0.671875 -3.390625q0 -1.859375 0.609375 -3.375q0.625 -1.515625 1.859375 -2.328125q1.25 -0.8125 2.78125 -0.8125q1.125 0 2.0 0.484375q0.890625 0.46875 1.4375 1.234375l0 -6.171875l2.09375 0l0 17.1875l-1.953125 0zm-6.671875 -6.21875q0 2.390625 1.0 3.578125q1.015625 1.1875 2.390625 1.1875q1.390625 0 2.34375 -1.125q0.96875 -1.140625 0.96875 -3.453125q0 -2.5625 -0.984375 -3.75q-0.984375 -1.203125 -2.421875 -1.203125q-1.40625 0 -2.359375 1.15625q-0.9375 1.140625 -0.9375 3.609375zm11.957031 -8.53125l0 -2.4375l2.109375 0l0 2.4375l-2.109375 0zm0 14.75l0 -12.453125l2.109375 0l0 12.453125l-2.109375 0zm4.5351562 -6.21875q0 -3.46875 1.921875 -5.125q1.609375 -1.390625 3.921875 -1.390625q2.5625 0 4.1875 1.6875q1.625 1.6875 1.625 4.640625q0 2.40625 -0.71875 3.78125q-0.71875 1.375 -2.09375 2.140625q-1.375 0.765625 -3.0 0.765625q-2.625 0 -4.234375 -1.671875q-1.609375 -1.6875 -1.609375 -4.828125zm2.171875 0q0 2.390625 1.03125 3.578125q1.046875 1.1875 2.640625 1.1875q1.5625 0 2.609375 -1.1875q1.046875 -1.203125 1.046875 -3.65625q0 -2.3125 -1.0625 -3.5q-1.046875 -1.1875 -2.59375 -1.1875q-1.59375 0 -2.640625 1.1875q-1.03125 1.1875 -1.03125 3.578125zm20.035156 6.21875l0 -1.578125q-1.1875 1.859375 -3.484375 1.859375q-1.484375 0 -2.734375 -0.8125q-1.25 -0.828125 -1.9375 -2.296875q-0.671875 -1.46875 -0.671875 -3.390625q0 -1.859375 0.609375 -3.375q0.625 -1.515625 1.859375 -2.328125q1.25 -0.8125 2.78125 -0.8125q1.125 0 2.0 0.484375q0.890625 0.46875 1.4375 1.234375l0 -6.171875l2.09375 0l0 17.1875l-1.953125 0zm-6.671875 -6.21875q0 2.390625 1.0 3.578125q1.015625 1.1875 2.390625 1.1875q1.390625 0 2.34375 -1.125q0.96875 -1.140625 0.96875 -3.453125q0 -2.5625 -0.984375 -3.75q-0.984375 -1.203125 -2.421875 -1.203125q-1.40625 0 -2.359375 1.15625q-0.9375 1.140625 -0.9375 3.609375zm20.472656 2.203125l2.171875 0.28125q-0.515625 1.90625 -1.90625 2.96875q-1.390625 1.046875 -3.5625 1.046875q-2.734375 0 -4.34375 -1.671875q-1.59375 -1.6875 -1.59375 -4.734375q0 -3.140625 1.609375 -4.875q1.625 -1.734375 4.203125 -1.734375q2.5 0 4.078125 1.703125q1.59375 1.703125 1.59375 4.78125q0 0.1875 -0.015625 0.5625l-9.28125 0q0.109375 2.046875 1.15625 3.140625q1.046875 1.09375 2.609375 1.09375q1.15625 0 1.96875 -0.609375q0.828125 -0.609375 1.3125 -1.953125zm-6.9375 -3.40625l6.953125 0q-0.140625 -1.5625 -0.796875 -2.359375q-1.0 -1.21875 -2.609375 -1.21875q-1.453125 0 -2.453125 0.984375q-0.984375 0.96875 -1.09375 2.59375z" fill-rule="nonzero"></path><path fill="#000000" fill-opacity="0.0" d="m1176.9763 216.82939l162.07886 0l0 44.220474l-162.07886 0z" fill-rule="evenodd"></path><path fill="#000000" d="m1212.5118 244.79964l2.390625 -11.453125l7.4375 0l-0.265625 1.296875l-5.921875 0l-0.75 3.65625l6.015625 0l-0.265625 1.296875l-6.03125 0l-1.078125 5.203125l-1.53125 0zm9.8203125 -3.15625q0 -2.421875 1.4375 -4.015625q1.171875 -1.3125 3.09375 -1.3125q1.5 0 2.40625 0.9375q0.921875 0.9375 0.921875 2.53125q0 1.421875 -0.578125 2.65625q-0.578125 1.234375 -1.640625 1.890625q-1.0625 0.65625 -2.25 0.65625q-0.96875 0 -1.765625 -0.40625q-0.78125 -0.421875 -1.203125 -1.171875q-0.421875 -0.765625 -0.421875 -1.765625zm1.421875 -0.140625q0 1.171875 0.5625 1.78125q0.5625 0.609375 1.421875 0.609375q0.453125 0 0.890625 -0.1875q0.453125 -0.1875 0.828125 -0.5625q0.390625 -0.375 0.65625 -0.84375q0.28125 -0.484375 0.4375 -1.046875q0.25 -0.765625 0.25 -1.484375q0 -1.125 -0.578125 -1.734375q-0.5625 -0.625 -1.421875 -0.625q-0.65625 0 -1.203125 0.3125q-0.546875 0.3125 -1.0 0.921875q-0.4375 0.609375 -0.640625 1.421875q-0.203125 0.8125 -0.203125 1.4375zm7.2265625 3.296875l1.734375 -8.296875l1.25 0l-0.34375 1.6875q0.640625 -0.953125 1.25 -1.40625q0.609375 -0.46875 1.25 -0.46875q0.421875 0 1.046875 0.296875l-0.578125 1.3125q-0.375 -0.265625 -0.8125 -0.265625q-0.734375 0 -1.515625 0.828125q-0.78125 0.828125 -1.234375 2.984375l-0.703125 3.328125l-1.34375 0zm6.90625 0l-0.859375 -8.296875l1.359375 0l0.375 3.71875l0.140625 2.09375q0.015625 0.234375 0.046875 0.953125q0.234375 -0.796875 0.390625 -1.21875q0.171875 -0.4375 0.53125 -1.21875l1.984375 -4.328125l1.53125 0l0.28125 4.140625q0.0625 0.953125 0.078125 2.53125q0.390625 -1.046875 1.265625 -2.90625l1.78125 -3.765625l1.421875 0l-4.0625 8.296875l-1.46875 0l-0.3125 -4.875q-0.03125 -0.453125 -0.046875 -1.765625q-0.3125 0.84375 -0.75 1.8125l-2.203125 4.828125l-1.484375 0zm15.5703125 -1.03125q-0.734375 0.625 -1.421875 0.921875q-0.671875 0.296875 -1.4375 0.296875q-1.15625 0 -1.859375 -0.671875q-0.703125 -0.6875 -0.703125 -1.734375q0 -0.703125 0.3125 -1.234375q0.328125 -0.53125 0.84375 -0.859375q0.53125 -0.328125 1.28125 -0.46875q0.484375 -0.09375 1.8125 -0.140625q1.328125 -0.0625 1.90625 -0.28125q0.171875 -0.578125 0.171875 -0.96875q0 -0.484375 -0.359375 -0.765625q-0.5 -0.390625 -1.4375 -0.390625q-0.890625 0 -1.46875 0.390625q-0.5625 0.390625 -0.8125 1.125l-1.4375 -0.125q0.4375 -1.234375 1.390625 -1.890625q0.953125 -0.65625 2.390625 -0.65625q1.546875 0 2.4375 0.734375q0.6875 0.546875 0.6875 1.421875q0 0.65625 -0.1875 1.53125l-0.46875 2.0625q-0.21875 0.984375 -0.21875 1.609375q0 0.390625 0.171875 1.125l-1.421875 0q-0.125 -0.40625 -0.171875 -1.03125zm0.53125 -3.171875q-0.296875 0.109375 -0.640625 0.171875q-0.34375 0.0625 -1.140625 0.140625q-1.234375 0.109375 -1.75 0.28125q-0.5 0.15625 -0.765625 0.53125q-0.25 0.359375 -0.25 0.8125q0 0.59375 0.40625 0.984375q0.421875 0.375 1.171875 0.375q0.703125 0 1.34375 -0.375q0.65625 -0.375 1.03125 -1.03125q0.375 -0.671875 0.59375 -1.890625zm2.7734375 4.203125l1.734375 -8.296875l1.25 0l-0.34375 1.6875q0.640625 -0.953125 1.25 -1.40625q0.609375 -0.46875 1.25 -0.46875q0.421875 0 1.046875 0.296875l-0.578125 1.3125q-0.375 -0.265625 -0.8125 -0.265625q-0.734375 0 -1.515625 0.828125q-0.78125 0.828125 -1.234375 2.984375l-0.703125 3.328125l-1.34375 0zm10.921875 -1.203125q-1.203125 1.390625 -2.53125 1.390625q-1.171875 0 -1.96875 -0.875q-0.78125 -0.875 -0.78125 -2.53125q0 -1.515625 0.625 -2.765625q0.625 -1.25 1.546875 -1.875q0.9375 -0.625 1.875 -0.625q1.546875 0 2.34375 1.484375l0.9375 -4.453125l1.40625 0l-2.390625 11.453125l-1.3125 0l0.25 -1.203125zm-3.875 -2.28125q0 0.875 0.171875 1.375q0.171875 0.5 0.578125 0.828125q0.421875 0.328125 1.0 0.328125q0.96875 0 1.75 -1.0q1.046875 -1.328125 1.046875 -3.28125q0 -0.984375 -0.515625 -1.53125q-0.515625 -0.5625 -1.296875 -0.5625q-0.515625 0 -0.9375 0.234375q-0.40625 0.21875 -0.828125 0.765625q-0.40625 0.546875 -0.6875 1.390625q-0.28125 0.828125 -0.28125 1.453125zm11.625 3.484375l2.390625 -11.453125l1.421875 0l-0.859375 4.09375q0.671875 -0.625 1.21875 -0.875q0.546875 -0.25 1.140625 -0.25q1.171875 0 1.9375 0.875q0.78125 0.859375 0.78125 2.515625q0 1.09375 -0.3125 2.015625q-0.3125 0.90625 -0.78125 1.53125q-0.453125 0.625 -0.953125 1.0q-0.484375 0.359375 -1.0 0.546875q-0.515625 0.1875 -0.984375 0.1875q-0.828125 0 -1.453125 -0.4375q-0.625 -0.4375 -0.96875 -1.328125l-0.328125 1.578125l-1.25 0zm2.09375 -3.40625l0 0.265625q0 1.0625 0.5 1.625q0.515625 0.546875 1.265625 0.546875q0.75 0 1.359375 -0.515625q0.625 -0.53125 1.015625 -1.625q0.40625 -1.109375 0.40625 -2.03125q0 -1.046875 -0.5 -1.625q-0.5 -0.578125 -1.25 -0.578125q-0.765625 0 -1.40625 0.59375q-0.640625 0.578125 -1.0625 1.8125q-0.328125 0.90625 -0.328125 1.53125zm8.8203125 -6.453125l0.328125 -1.59375l1.40625 0l-0.328125 1.59375l-1.40625 0zm-2.0625 9.859375l1.734375 -8.296875l1.40625 0l-1.734375 8.296875l-1.40625 0zm9.1953125 -1.03125q-0.734375 0.625 -1.421875 0.921875q-0.671875 0.296875 -1.4375 0.296875q-1.15625 0 -1.859375 -0.671875q-0.703125 -0.6875 -0.703125 -1.734375q0 -0.703125 0.3125 -1.234375q0.328125 -0.53125 0.84375 -0.859375q0.53125 -0.328125 1.28125 -0.46875q0.484375 -0.09375 1.8125 -0.140625q1.328125 -0.0625 1.90625 -0.28125q0.171875 -0.578125 0.171875 -0.96875q0 -0.484375 -0.359375 -0.765625q-0.5 -0.390625 -1.4375 -0.390625q-0.890625 0 -1.46875 0.390625q-0.5625 0.390625 -0.8125 1.125l-1.4375 -0.125q0.4375 -1.234375 1.390625 -1.890625q0.953125 -0.65625 2.390625 -0.65625q1.546875 0 2.4375 0.734375q0.6875 0.546875 0.6875 1.421875q0 0.65625 -0.1875 1.53125l-0.46875 2.0625q-0.21875 0.984375 -0.21875 1.609375q0 0.390625 0.171875 1.125l-1.421875 0q-0.125 -0.40625 -0.171875 -1.03125zm0.53125 -3.171875q-0.296875 0.109375 -0.640625 0.171875q-0.34375 0.0625 -1.140625 0.140625q-1.234375 0.109375 -1.75 0.28125q-0.5 0.15625 -0.765625 0.53125q-0.25 0.359375 -0.25 0.8125q0 0.59375 0.40625 0.984375q0.421875 0.375 1.171875 0.375q0.703125 0 1.34375 -0.375q0.65625 -0.375 1.03125 -1.03125q0.375 -0.671875 0.59375 -1.890625zm2.9140625 1.359375l1.40625 -0.078125q0 0.609375 0.1875 1.046875q0.1875 0.421875 0.6875 0.703125q0.515625 0.265625 1.1875 0.265625q0.9375 0 1.40625 -0.375q0.46875 -0.375 0.46875 -0.890625q0 -0.359375 -0.28125 -0.6875q-0.296875 -0.328125 -1.421875 -0.8125q-1.109375 -0.484375 -1.421875 -0.671875q-0.53125 -0.328125 -0.796875 -0.75q-0.265625 -0.4375 -0.265625 -1.0q0 -0.984375 0.78125 -1.6875q0.78125 -0.703125 2.1875 -0.703125q1.5625 0 2.375 0.71875q0.828125 0.71875 0.859375 1.90625l-1.390625 0.09375q-0.03125 -0.75 -0.53125 -1.1875q-0.5 -0.4375 -1.40625 -0.4375q-0.734375 0 -1.140625 0.34375q-0.40625 0.328125 -0.40625 0.71875q0 0.390625 0.34375 0.6875q0.234375 0.203125 1.21875 0.625q1.625 0.703125 2.046875 1.109375q0.671875 0.640625 0.671875 1.578125q0 0.609375 -0.390625 1.203125q-0.375 0.59375 -1.15625 0.953125q-0.765625 0.359375 -1.828125 0.359375q-1.4375 0 -2.4375 -0.71875q-1.015625 -0.703125 -0.953125 -2.3125z" fill-rule="nonzero"></path><path fill="#000000" fill-opacity="0.0" d="m992.7874 216.82939l162.07867 0l0 44.220474l-162.07867 0z" fill-rule="evenodd"></path><path fill="#000000" d="m1027.8893 244.79964l2.40625 -11.453125l4.796875 0q1.421875 0 2.15625 0.234375q0.734375 0.234375 1.15625 0.890625q0.421875 0.65625 0.421875 1.65625q0 1.40625 -0.921875 2.328125q-0.90625 0.921875 -2.953125 1.1875q0.625 0.46875 0.953125 0.90625q0.71875 1.015625 1.15625 2.09375l0.875 2.15625l-1.71875 0l-0.8125 -2.140625q-0.453125 -1.15625 -1.015625 -2.0q-0.390625 -0.578125 -0.796875 -0.765625q-0.40625 -0.1875 -1.328125 -0.1875l-1.78125 0l-1.0625 5.09375l-1.53125 0zm2.859375 -6.328125l2.109375 0q1.46875 0 1.921875 -0.046875q0.859375 -0.078125 1.40625 -0.375q0.5625 -0.3125 0.859375 -0.828125q0.3125 -0.515625 0.3125 -1.109375q0 -0.5 -0.234375 -0.875q-0.21875 -0.375 -0.59375 -0.5q-0.359375 -0.140625 -1.234375 -0.140625l-3.734375 0l-0.8125 3.875zm14.5703125 3.5l1.375 0.140625q-0.296875 1.03125 -1.359375 1.953125q-1.0625 0.921875 -2.546875 0.921875q-0.921875 0 -1.6875 -0.421875q-0.765625 -0.4375 -1.171875 -1.25q-0.40625 -0.8125 -0.40625 -1.84375q0 -1.359375 0.625 -2.640625q0.640625 -1.28125 1.640625 -1.890625q1.0 -0.625 2.15625 -0.625q1.484375 0 2.375 0.921875q0.890625 0.921875 0.890625 2.515625q0 0.609375 -0.109375 1.25l-6.109375 0q-0.03125 0.234375 -0.03125 0.4375q0 1.15625 0.53125 1.78125q0.53125 0.609375 1.3125 0.609375q0.71875 0 1.421875 -0.46875q0.703125 -0.484375 1.09375 -1.390625zm-4.109375 -2.046875l4.65625 0q0.015625 -0.21875 0.015625 -0.3125q0 -1.0625 -0.53125 -1.625q-0.53125 -0.578125 -1.375 -0.578125q-0.90625 0 -1.65625 0.625q-0.734375 0.625 -1.109375 1.890625zm9.0078125 4.875l-1.359375 -8.296875l1.375 0l0.71875 4.5625q0.109375 0.75 0.28125 2.453125q0.40625 -0.890625 1.046875 -2.03125l2.765625 -4.984375l1.5 0l-4.75 8.296875l-1.578125 0zm12.0 -2.828125l1.375 0.140625q-0.296875 1.03125 -1.359375 1.953125q-1.0625 0.921875 -2.546875 0.921875q-0.921875 0 -1.6875 -0.421875q-0.765625 -0.4375 -1.171875 -1.25q-0.40625 -0.8125 -0.40625 -1.84375q0 -1.359375 0.625 -2.640625q0.640625 -1.28125 1.640625 -1.890625q1.0 -0.625 2.15625 -0.625q1.484375 0 2.375 0.921875q0.890625 0.921875 0.890625 2.515625q0 0.609375 -0.109375 1.25l-6.109375 0q-0.03125 0.234375 -0.03125 0.4375q0 1.15625 0.53125 1.78125q0.53125 0.609375 1.3125 0.609375q0.71875 0 1.421875 -0.46875q0.703125 -0.484375 1.09375 -1.390625zm-4.109375 -2.046875l4.65625 0q0.015625 -0.21875 0.015625 -0.3125q0 -1.0625 -0.53125 -1.625q-0.53125 -0.578125 -1.375 -0.578125q-0.90625 0 -1.65625 0.625q-0.734375 0.625 -1.109375 1.890625zm6.9140625 4.875l1.734375 -8.296875l1.25 0l-0.34375 1.6875q0.640625 -0.953125 1.25 -1.40625q0.609375 -0.46875 1.25 -0.46875q0.421875 0 1.046875 0.296875l-0.578125 1.3125q-0.375 -0.265625 -0.8125 -0.265625q-0.734375 0 -1.515625 0.828125q-0.78125 0.828125 -1.234375 2.984375l-0.703125 3.328125l-1.34375 0zm5.46875 -2.84375l1.40625 -0.078125q0 0.609375 0.1875 1.046875q0.1875 0.421875 0.6875 0.703125q0.515625 0.265625 1.1875 0.265625q0.9375 0 1.40625 -0.375q0.46875 -0.375 0.46875 -0.890625q0 -0.359375 -0.28125 -0.6875q-0.296875 -0.328125 -1.421875 -0.8125q-1.109375 -0.484375 -1.421875 -0.671875q-0.53125 -0.328125 -0.796875 -0.75q-0.265625 -0.4375 -0.265625 -1.0q0 -0.984375 0.78125 -1.6875q0.78125 -0.703125 2.1875 -0.703125q1.5625 0 2.375 0.71875q0.828125 0.71875 0.859375 1.90625l-1.390625 0.09375q-0.03125 -0.75 -0.53125 -1.1875q-0.5 -0.4375 -1.40625 -0.4375q-0.734375 0 -1.140625 0.34375q-0.40625 0.328125 -0.40625 0.71875q0 0.390625 0.34375 0.6875q0.234375 0.203125 1.21875 0.625q1.625 0.703125 2.046875 1.109375q0.671875 0.640625 0.671875 1.578125q0 0.609375 -0.390625 1.203125q-0.375 0.59375 -1.15625 0.953125q-0.765625 0.359375 -1.828125 0.359375q-1.4375 0 -2.4375 -0.71875q-1.015625 -0.703125 -0.953125 -2.3125zm13.953125 0.015625l1.375 0.140625q-0.296875 1.03125 -1.359375 1.953125q-1.0625 0.921875 -2.546875 0.921875q-0.921875 0 -1.6875 -0.421875q-0.765625 -0.4375 -1.171875 -1.25q-0.40625 -0.8125 -0.40625 -1.84375q0 -1.359375 0.625 -2.640625q0.640625 -1.28125 1.640625 -1.890625q1.0 -0.625 2.15625 -0.625q1.484375 0 2.375 0.921875q0.890625 0.921875 0.890625 2.515625q0 0.609375 -0.109375 1.25l-6.109375 0q-0.03125 0.234375 -0.03125 0.4375q0 1.15625 0.53125 1.78125q0.53125 0.609375 1.3125 0.609375q0.71875 0 1.421875 -0.46875q0.703125 -0.484375 1.09375 -1.390625zm-4.109375 -2.046875l4.65625 0q0.015625 -0.21875 0.015625 -0.3125q0 -1.0625 -0.53125 -1.625q-0.53125 -0.578125 -1.375 -0.578125q-0.90625 0 -1.65625 0.625q-0.734375 0.625 -1.109375 1.890625zm11.359375 4.875l2.390625 -11.453125l1.421875 0l-0.859375 4.09375q0.671875 -0.625 1.21875 -0.875q0.546875 -0.25 1.140625 -0.25q1.171875 0 1.9375 0.875q0.78125 0.859375 0.78125 2.515625q0 1.09375 -0.3125 2.015625q-0.3125 0.90625 -0.78125 1.53125q-0.453125 0.625 -0.953125 1.0q-0.484375 0.359375 -1.0 0.546875q-0.515625 0.1875 -0.984375 0.1875q-0.828125 0 -1.453125 -0.4375q-0.625 -0.4375 -0.96875 -1.328125l-0.328125 1.578125l-1.25 0zm2.09375 -3.40625l0 0.265625q0 1.0625 0.5 1.625q0.515625 0.546875 1.265625 0.546875q0.75 0 1.359375 -0.515625q0.625 -0.53125 1.015625 -1.625q0.40625 -1.109375 0.40625 -2.03125q0 -1.046875 -0.5 -1.625q-0.5 -0.578125 -1.25 -0.578125q-0.765625 0 -1.40625 0.59375q-0.640625 0.578125 -1.0625 1.8125q-0.328125 0.90625 -0.328125 1.53125zm8.8203125 -6.453125l0.328125 -1.59375l1.40625 0l-0.328125 1.59375l-1.40625 0zm-2.0625 9.859375l1.734375 -8.296875l1.40625 0l-1.734375 8.296875l-1.40625 0zm9.1953125 -1.03125q-0.734375 0.625 -1.421875 0.921875q-0.671875 0.296875 -1.4375 0.296875q-1.15625 0 -1.859375 -0.671875q-0.703125 -0.6875 -0.703125 -1.734375q0 -0.703125 0.3125 -1.234375q0.328125 -0.53125 0.84375 -0.859375q0.53125 -0.328125 1.28125 -0.46875q0.484375 -0.09375 1.8125 -0.140625q1.328125 -0.0625 1.90625 -0.28125q0.171875 -0.578125 0.171875 -0.96875q0 -0.484375 -0.359375 -0.765625q-0.5 -0.390625 -1.4375 -0.390625q-0.890625 0 -1.46875 0.390625q-0.5625 0.390625 -0.8125 1.125l-1.4375 -0.125q0.4375 -1.234375 1.390625 -1.890625q0.953125 -0.65625 2.390625 -0.65625q1.546875 0 2.4375 0.734375q0.6875 0.546875 0.6875 1.421875q0 0.65625 -0.1875 1.53125l-0.46875 2.0625q-0.21875 0.984375 -0.21875 1.609375q0 0.390625 0.171875 1.125l-1.421875 0q-0.125 -0.40625 -0.171875 -1.03125zm0.53125 -3.171875q-0.296875 0.109375 -0.640625 0.171875q-0.34375 0.0625 -1.140625 0.140625q-1.234375 0.109375 -1.75 0.28125q-0.5 0.15625 -0.765625 0.53125q-0.25 0.359375 -0.25 0.8125q0 0.59375 0.40625 0.984375q0.421875 0.375 1.171875 0.375q0.703125 0 1.34375 -0.375q0.65625 -0.375 1.03125 -1.03125q0.375 -0.671875 0.59375 -1.890625zm2.9140625 1.359375l1.40625 -0.078125q0 0.609375 0.1875 1.046875q0.1875 0.421875 0.6875 0.703125q0.515625 0.265625 1.1875 0.265625q0.9375 0 1.40625 -0.375q0.46875 -0.375 0.46875 -0.890625q0 -0.359375 -0.28125 -0.6875q-0.296875 -0.328125 -1.421875 -0.8125q-1.109375 -0.484375 -1.421875 -0.671875q-0.53125 -0.328125 -0.796875 -0.75q-0.265625 -0.4375 -0.265625 -1.0q0 -0.984375 0.78125 -1.6875q0.78125 -0.703125 2.1875 -0.703125q1.5625 0 2.375 0.71875q0.828125 0.71875 0.859375 1.90625l-1.390625 0.09375q-0.03125 -0.75 -0.53125 -1.1875q-0.5 -0.4375 -1.40625 -0.4375q-0.734375 0 -1.140625 0.34375q-0.40625 0.328125 -0.40625 0.71875q0 0.390625 0.34375 0.6875q0.234375 0.203125 1.21875 0.625q1.625 0.703125 2.046875 1.109375q0.671875 0.640625 0.671875 1.578125q0 0.609375 -0.390625 1.203125q-0.375 0.59375 -1.15625 0.953125q-0.765625 0.359375 -1.828125 0.359375q-1.4375 0 -2.4375 -0.71875q-1.015625 -0.703125 -0.953125 -2.3125z" fill-rule="nonzero"></path></g></svg>

